<mxfile host="app.diagrams.net" modified="2022-07-25T03:03:37.309Z" agent="5.0 (Windows)" etag="_1HO18pOsXWpXVSH-QjY" version="20.2.0" type="github">
  <diagram id="hU0KJ7sdKpQA_RsygUd-" name="Page-1">
    <mxGraphModel dx="780" dy="1096" grid="1" gridSize="10" guides="1" tooltips="1" connect="1" arrows="1" fold="1" page="1" pageScale="1" pageWidth="850" pageHeight="1100" math="0" shadow="0">
      <root>
        <mxCell id="0" />
        <mxCell id="1" parent="0" />
        <mxCell id="N4XjCJSC4XH3Mwyu2-OB-3" value="" style="edgeStyle=orthogonalEdgeStyle;rounded=0;orthogonalLoop=1;jettySize=auto;html=1;" edge="1" parent="1" source="N4XjCJSC4XH3Mwyu2-OB-1" target="N4XjCJSC4XH3Mwyu2-OB-2">
          <mxGeometry relative="1" as="geometry" />
        </mxCell>
        <mxCell id="N4XjCJSC4XH3Mwyu2-OB-1" value="Modem / Router" style="rounded=0;whiteSpace=wrap;html=1;" vertex="1" parent="1">
          <mxGeometry x="230" y="70" width="120" height="50" as="geometry" />
        </mxCell>
        <mxCell id="N4XjCJSC4XH3Mwyu2-OB-2" value="Rack Mount Switch" style="rounded=0;whiteSpace=wrap;html=1;" vertex="1" parent="1">
          <mxGeometry x="230" y="160" width="120" height="50" as="geometry" />
        </mxCell>
      </root>
    </mxGraphModel>
  </diagram>
</mxfile>
